# xmcd
#
# Track frame offsets: 
#        150
#        23002
#        40264
#        54390
#        68780
#        79330
#        95494
#        116029
#        131797
#        150164
#        169509
#
# Disc length: 2604 seconds
#
# Revision: 0
# Processed by: cddbd v1.5.2PL0 Copyright (c) Steve Scherf et al.
# Submitted via: ExactAudioCopy v1.0b3
#
DISCID=850a2a0b
DTITLE=Murder By Death - The Other Shore
DYEAR=2018
DGENRE=Indie
TTITLE0=Alas
TTITLE1=Chasin' Ghosts
TTITLE2=True Dark
TTITLE3=Stone
TTITLE4=Travelin' Far
TTITLE5=Only Time
TTITLE6=Space
TTITLE7=Bloom
TTITLE8=I Have Arrived
TTITLE9=New Old City
TTITLE10=Last Night On Earth
EXTD=
EXTT0=
EXTT1=
EXTT2=
EXTT3=
EXTT4=
EXTT5=
EXTT6=
EXTT7=
EXTT8=
EXTT9=
EXTT10=
PLAYORDER=
